<svg xmlns="http://www.w3.org/2000/svg" viewBox="0 0 500 500"><g id="freepik--Floor--inject-1"><ellipse id="freepik--floor--inject-1" cx="250" cy="366.78" rx="229.5" ry="100.36" style="fill:#fafafa"></ellipse></g><g id="freepik--Shadows--inject-1"><ellipse id="freepik--Shadow--inject-1" cx="399.99" cy="366.78" rx="49.16" ry="23.43" style="fill:#ebebeb"></ellipse></g><g id="freepik--Plant--inject-1"><g id="freepik--Plants--inject-1"><path d="M94.65,341.06s1-19.17-8.55-32.7-21.54-13.81-26.35-11.88-8.48,8.34-1,13.84,23.39,16.61,25.4,25.41Z" style="fill:#FFE20E"></path><path d="M94.65,341.06s1-19.17-8.55-32.7-21.54-13.81-26.35-11.88-8.48,8.34-1,13.84,23.39,16.61,25.4,25.41Z" style="opacity:0.15"></path><path d="M91.16,337.25a.5.5,0,0,1-.49-.4c-5.3-26.15-20.79-33.47-27.2-35.41a.5.5,0,0,1-.34-.62.51.51,0,0,1,.63-.33c6.58,2,22.48,9.48,27.89,36.16a.49.49,0,0,1-.39.59Z" style="fill:#fff"></path><path d="M85.73,330c-2.11-6.33-4.89-9.34-13.7-8.67s-7.52.56-17.94-3.13-18.2,0-19.35,4.06c-1.25,4.38,7.28,7.13,13.51,10.62s10.35,7.58,8.27,13.28c-1.78,4.89-1.33,9.2,6.22,11.72,6.72,2.24,14.4-1.06,16.63,5.76,1.27,3.89,7.31,8.55,13.53,5.6,11.13-9.33,9.39-22.1,3.59-30.93C93.94,334.43,87,333.81,85.73,330Z" style="fill:#FFE20E"></path><path d="M91.92,358.28a.49.49,0,0,1-.47-.34C84.89,339.26,54,323.05,42.71,321.22a.51.51,0,0,1-.41-.58.49.49,0,0,1,.57-.41c11.46,1.87,42.84,18.36,49.52,37.38a.5.5,0,0,1-.3.64Z" style="fill:#fff"></path><path d="M64.22,348.12a.53.53,0,0,1-.4-.19.51.51,0,0,1,.09-.7,30.9,30.9,0,0,1,17-5.51.5.5,0,1,1,0,1A30.51,30.51,0,0,0,64.53,348,.5.5,0,0,1,64.22,348.12Z" style="fill:#fff"></path></g></g><g id="freepik--Photos--inject-1"><g id="freepik--Photo--inject-1"><polygon points="284.74 71.21 284.74 253.25 99.81 360.01 103.98 368.55 284.74 264.2 292.82 264.95 292.82 71.99 284.74 71.21" style="fill:#f0f0f0"></polygon><path d="M247.57,171.42l1.51-2.11-9.55-5.52h0l-.07,0h0a3.19,3.19,0,0,0-4.25,1l-26.34,40.55-27.29-23.63,1.13-1.7-9.46-5.46h0a3.18,3.18,0,0,0-4.31,1L99.82,279.26v74.27L109.3,359,280,255V202.61Z" style="fill:#f0f0f0"></path><path d="M109.3,359V284.74L178.41,181a3.19,3.19,0,0,1,4.75-.65l35.19,30.47,26.34-40.55a3.2,3.2,0,0,1,4.9-.56l39.88,38.38v43.76a5.45,5.45,0,0,1-2.71,4.71Z" style="fill:#fafafa"></path><polygon points="218.35 210.82 232.58 223.14 220.13 208.09 218.35 210.82" style="fill:#f0f0f0"></polygon><path d="M298.93,68.24a1.55,1.55,0,0,0-.06-.31,5.6,5.6,0,0,0-2.44-3.65L292,61.72a5.57,5.57,0,0,0-5.06,0L92.87,173.77a5.37,5.37,0,0,0-1.8,1.89,5.21,5.21,0,0,0-.73,2.49V369.41a5.59,5.59,0,0,0,2.53,4.38l4.42,2.56a5.64,5.64,0,0,0,4.47.26l.18-.07a2.12,2.12,0,0,0,.41-.19l56.15-32.42L296.43,264.3a5.62,5.62,0,0,0,2.53-4.38V68.65C299,68.51,298.94,68.37,298.93,68.24Zm-6.11,188.32a5.58,5.58,0,0,1-2.54,4.38L157,337.5l-49.91,29.23c-1.39.8-2.53.15-2.53-1.46V186.36a5.11,5.11,0,0,1,.74-2.48,4.88,4.88,0,0,1,1.79-1.89L290.28,76.2c1.41-.82,2.54-.17,2.54,1.45Z" style="fill:#fff"></path><path d="M102.35,376.35a2.12,2.12,0,0,1-.41.19l-.18.07a5.64,5.64,0,0,1-4.47-.26l-4.42-2.56a5.59,5.59,0,0,1-2.53-4.38V178.15a5.21,5.21,0,0,1,.73-2.49l9.48,5.47c1.54.89,3.13,1.8,4.75,2.75a5.11,5.11,0,0,0-.74,2.48V365.27c0,1.61,1.14,2.26,2.53,1.46Z" style="fill:#f0f0f0"></path><path d="M298.93,68.24a1.55,1.55,0,0,0-.06-.31c-.3-1.06-1.28-1.41-2.44-.74L102.35,179.26a5.49,5.49,0,0,0-2.54,4.37V374.89c0,1.37.83,2.05,1.94,1.72l.18-.07a2.12,2.12,0,0,0,.41-.19l194.08-112a5.62,5.62,0,0,0,2.53-4.38V68.65C299,68.51,298.94,68.37,298.93,68.24Zm-6.11,188.32a5.58,5.58,0,0,1-2.54,4.38L107.09,366.73c-1.39.8-2.53.15-2.53-1.46V186.36a5.11,5.11,0,0,1,.74-2.48,4.88,4.88,0,0,1,1.79-1.89L290.28,76.2c1.41-.82,2.54-.17,2.54,1.45Z" style="fill:#fafafa"></path><path d="M265.07,125.2l4.79-8.14-8.2-4.78h0c-2.41-1.38-5.73-1.18-9.39.94-7.34,4.24-13.3,14.55-13.3,23,0,4.18,1.46,7.13,3.8,8.54h0l.07,0,0,0,7.9,4.59,4.58-7.76A31.09,31.09,0,0,0,265.07,125.2Z" style="fill:#f0f0f0"></path><ellipse cx="260.31" cy="133.24" rx="18.8" ry="10.85" transform="translate(14.76 292.06) rotate(-60)" style="fill:#fafafa"></ellipse></g><g id="freepik--photo--inject-1"><polygon points="307.74 84.21 307.74 266.25 122.81 373.01 126.98 381.55 307.74 277.2 315.82 277.95 315.82 84.99 307.74 84.21" style="fill:#ebebeb"></polygon><path d="M270.57,184.42l1.51-2.11-9.55-5.52h0l-.07,0h0a3.19,3.19,0,0,0-4.25,1l-26.34,40.55-27.29-23.63,1.13-1.7-9.46-5.46h0a3.18,3.18,0,0,0-4.31,1L122.82,292.26v74.27L132.3,372,303,268V215.61Z" style="fill:#ebebeb"></path><path d="M132.3,372V297.74L201.41,194a3.19,3.19,0,0,1,4.75-.65l35.19,30.47,26.34-40.55a3.2,3.2,0,0,1,4.9-.56l39.88,38.38v43.76a5.45,5.45,0,0,1-2.71,4.71Z" style="fill:#f5f5f5"></path><polygon points="241.35 223.82 255.58 236.14 243.13 221.09 241.35 223.82" style="fill:#ebebeb"></polygon><path d="M321.93,81.24a1.55,1.55,0,0,0-.06-.31,5.6,5.6,0,0,0-2.44-3.65L315,74.72a5.57,5.57,0,0,0-5.06,0L115.87,186.77a5.37,5.37,0,0,0-1.8,1.89,5.21,5.21,0,0,0-.73,2.49V382.41a5.59,5.59,0,0,0,2.53,4.38l4.42,2.56a5.64,5.64,0,0,0,4.47.26l.18-.07a2.12,2.12,0,0,0,.41-.19l56.15-32.42L319.43,277.3a5.62,5.62,0,0,0,2.53-4.38V81.65C322,81.51,321.94,81.37,321.93,81.24Zm-6.11,188.32a5.58,5.58,0,0,1-2.54,4.38L180,350.5l-49.91,29.23c-1.39.8-2.53.15-2.53-1.46V199.36a5.11,5.11,0,0,1,.74-2.48,4.88,4.88,0,0,1,1.79-1.89L313.28,89.2c1.41-.82,2.54-.17,2.54,1.45Z" style="fill:#fafafa"></path><path d="M125.35,389.35a2.12,2.12,0,0,1-.41.19l-.18.07a5.64,5.64,0,0,1-4.47-.26l-4.42-2.56a5.59,5.59,0,0,1-2.53-4.38V191.15a5.21,5.21,0,0,1,.73-2.49l9.48,5.47c1.54.89,3.13,1.8,4.75,2.75a5.11,5.11,0,0,0-.74,2.48V378.27c0,1.61,1.14,2.26,2.53,1.46Z" style="fill:#f0f0f0"></path><path d="M321.93,81.24a1.55,1.55,0,0,0-.06-.31c-.3-1.06-1.28-1.41-2.44-.74L125.35,192.26a5.49,5.49,0,0,0-2.54,4.37V387.89c0,1.37.83,2.05,1.94,1.72l.18-.07a2.12,2.12,0,0,0,.41-.19l194.08-112a5.62,5.62,0,0,0,2.53-4.38V81.65C322,81.51,321.94,81.37,321.93,81.24Zm-6.11,188.32a5.58,5.58,0,0,1-2.54,4.38L130.09,379.73c-1.39.8-2.53.15-2.53-1.46V199.36a5.11,5.11,0,0,1,.74-2.48,4.88,4.88,0,0,1,1.79-1.89L313.28,89.2c1.41-.82,2.54-.17,2.54,1.45Z" style="fill:#f5f5f5"></path><path d="M288.07,138.2l4.79-8.14-8.2-4.78h0c-2.41-1.38-5.73-1.18-9.39.94-7.34,4.24-13.3,14.55-13.3,23,0,4.18,1.46,7.13,3.8,8.54h0l.07,0,.05,0,7.9,4.59,4.58-7.76A31.09,31.09,0,0,0,288.07,138.2Z" style="fill:#ebebeb"></path><ellipse cx="283.31" cy="146.24" rx="18.8" ry="10.85" transform="translate(15.01 318.48) rotate(-60)" style="fill:#f5f5f5"></ellipse></g><g id="freepik--photo--inject-1"><polygon points="330.74 97.21 330.74 279.25 145.81 386.01 149.99 394.55 330.74 290.2 338.82 290.95 338.82 97.99 330.74 97.21" style="fill:#e0e0e0"></polygon><path d="M293.57,197.42l1.51-2.11-9.55-5.52h0l-.07,0h0a3.19,3.19,0,0,0-4.25,1l-26.34,40.55-27.29-23.63,1.13-1.7-9.46-5.46h0a3.18,3.18,0,0,0-4.31,1L145.82,305.26v74.27L155.3,385,326,281V228.61Z" style="fill:#e6e6e6"></path><path d="M155.3,385V310.74L224.41,207a3.19,3.19,0,0,1,4.75-.65l35.19,30.47,26.34-40.55a3.2,3.2,0,0,1,4.9-.56l39.88,38.38v43.76a5.45,5.45,0,0,1-2.71,4.71Z" style="fill:#ebebeb"></path><polygon points="264.35 236.82 278.58 249.14 266.13 234.09 264.35 236.82" style="fill:#e6e6e6"></polygon><path d="M344.93,94.24a1.55,1.55,0,0,0-.06-.31,5.6,5.6,0,0,0-2.44-3.65L338,87.72a5.57,5.57,0,0,0-5.06,0L138.87,199.77a5.37,5.37,0,0,0-1.8,1.89,5.21,5.21,0,0,0-.73,2.49V395.41a5.59,5.59,0,0,0,2.53,4.38l4.42,2.56a5.64,5.64,0,0,0,4.47.26l.18-.07a2.12,2.12,0,0,0,.41-.19l56.15-32.42L342.43,290.3a5.62,5.62,0,0,0,2.53-4.38V94.65C345,94.51,344.94,94.37,344.93,94.24Zm-6.11,188.32a5.58,5.58,0,0,1-2.54,4.38L203,363.5l-49.91,29.23c-1.39.8-2.53.15-2.53-1.46V212.36a5.11,5.11,0,0,1,.74-2.48,4.88,4.88,0,0,1,1.79-1.89L336.28,102.2c1.41-.82,2.54-.17,2.54,1.45Z" style="fill:#f0f0f0"></path><path d="M148.35,402.35a2.12,2.12,0,0,1-.41.19l-.18.07a5.64,5.64,0,0,1-4.47-.26l-4.42-2.56a5.59,5.59,0,0,1-2.53-4.38V204.15a5.21,5.21,0,0,1,.73-2.49l9.48,5.47c1.54.89,3.13,1.8,4.75,2.75a5.11,5.11,0,0,0-.74,2.48V391.27c0,1.61,1.14,2.26,2.53,1.46Z" style="fill:#e0e0e0"></path><path d="M344.93,94.24a1.55,1.55,0,0,0-.06-.31c-.3-1.06-1.28-1.41-2.44-.74L148.35,205.26a5.49,5.49,0,0,0-2.54,4.37V400.89c0,1.37.83,2.05,1.94,1.72l.18-.07a2.12,2.12,0,0,0,.41-.19l194.08-112a5.62,5.62,0,0,0,2.53-4.38V94.65C345,94.51,344.94,94.37,344.93,94.24Zm-6.11,188.32a5.58,5.58,0,0,1-2.54,4.38L153.09,392.73c-1.39.8-2.53.15-2.53-1.46V212.36a5.11,5.11,0,0,1,.74-2.48,4.88,4.88,0,0,1,1.79-1.89L336.28,102.2c1.41-.82,2.54-.17,2.54,1.45Z" style="fill:#ebebeb"></path><path d="M311.07,151.2l4.79-8.14-8.2-4.78h0c-2.41-1.38-5.73-1.18-9.39.94-7.34,4.24-13.3,14.55-13.3,23,0,4.18,1.46,7.13,3.8,8.54h0l.07,0,.05,0,7.9,4.59,4.58-7.76A31.09,31.09,0,0,0,311.07,151.2Z" style="fill:#e6e6e6"></path><ellipse cx="306.31" cy="159.24" rx="18.8" ry="10.85" transform="translate(15.25 344.9) rotate(-60)" style="fill:#ebebeb"></ellipse></g></g><g id="freepik--Character--inject-1"><g id="freepik--photo--inject-1"><polygon points="354.74 111.21 354.74 293.25 169.81 400.01 173.99 408.55 354.74 304.2 362.82 304.95 362.82 111.99 354.74 111.21" style="fill:#263238"></polygon><path d="M317.57,211.42l1.51-2.11-9.55-5.52h0l-.07,0h0a3.19,3.19,0,0,0-4.25,1l-26.34,40.55-27.29-23.63,1.13-1.7-9.46-5.46h0a3.18,3.18,0,0,0-4.31,1L169.82,319.26v74.27L179.3,399,350,295V242.61Z" style="fill:#FFE20E"></path><path d="M317.57,211.42l1.51-2.11-9.55-5.52h0l-.07,0h0a3.19,3.19,0,0,0-4.25,1l-26.34,40.55-27.29-23.63,1.13-1.7-9.46-5.46h0a3.18,3.18,0,0,0-4.31,1L169.82,319.26v74.27L179.3,399,350,295V242.61Z" style="opacity:0.15"></path><path d="M179.3,399V324.74L248.41,221a3.19,3.19,0,0,1,4.75-.65l35.19,30.47,26.34-40.55a3.2,3.2,0,0,1,4.9-.56l39.88,38.38v43.76a5.45,5.45,0,0,1-2.71,4.71Z" style="fill:#FFE20E"></path><polygon points="288.35 250.82 302.58 263.14 290.13 248.09 288.35 250.82" style="opacity:0.15"></polygon><path d="M368.93,108.24a1.55,1.55,0,0,0-.06-.31,5.6,5.6,0,0,0-2.44-3.65L362,101.72a5.57,5.57,0,0,0-5.06,0L162.87,213.77a5.37,5.37,0,0,0-1.8,1.89,5.21,5.21,0,0,0-.73,2.49V409.41a5.59,5.59,0,0,0,2.53,4.38l4.42,2.56a5.64,5.64,0,0,0,4.47.26l.18-.07a2.12,2.12,0,0,0,.41-.19l56.15-32.42L366.43,304.3a5.62,5.62,0,0,0,2.53-4.38V108.65C369,108.51,368.94,108.37,368.93,108.24Zm-6.11,188.32a5.58,5.58,0,0,1-2.54,4.38L227,377.5l-49.91,29.23c-1.39.8-2.53.15-2.53-1.46V226.36a5.11,5.11,0,0,1,.74-2.48,4.88,4.88,0,0,1,1.79-1.89L360.28,116.2c1.41-.82,2.54-.17,2.54,1.45Z" style="fill:#455a64"></path><path d="M172.35,416.35a2.12,2.12,0,0,1-.41.19l-.18.07a5.64,5.64,0,0,1-4.47-.26l-4.42-2.56a5.59,5.59,0,0,1-2.53-4.38V218.15a5.21,5.21,0,0,1,.73-2.49l9.48,5.47c1.54.89,3.13,1.8,4.75,2.75a5.11,5.11,0,0,0-.74,2.48V405.27c0,1.61,1.14,2.26,2.53,1.46Z" style="fill:#263238"></path><path d="M368.93,108.24a1.55,1.55,0,0,0-.06-.31c-.3-1.06-1.28-1.41-2.44-.74L172.35,219.26a5.49,5.49,0,0,0-2.54,4.37V414.89c0,1.37.83,2.05,1.94,1.72l.18-.07a2.12,2.12,0,0,0,.41-.19l194.08-112a5.62,5.62,0,0,0,2.53-4.38V108.65C369,108.51,368.94,108.37,368.93,108.24Zm-6.11,188.32a5.58,5.58,0,0,1-2.54,4.38L177.09,406.73c-1.39.8-2.53.15-2.53-1.46V226.36a5.11,5.11,0,0,1,.74-2.48,4.88,4.88,0,0,1,1.79-1.89L360.28,116.2c1.41-.82,2.54-.17,2.54,1.45Z" style="fill:#37474f"></path><path d="M335.07,165.2l4.79-8.14-8.2-4.78h0c-2.41-1.38-5.73-1.18-9.39.94-7.34,4.24-13.3,14.55-13.3,23,0,4.18,1.46,7.13,3.8,8.54h0l.07,0,.05,0,7.9,4.59,4.58-7.76A31.09,31.09,0,0,0,335.07,165.2Z" style="fill:#FFE20E"></path><path d="M335.07,165.2l4.79-8.14-8.2-4.78h0c-2.41-1.38-5.73-1.18-9.39.94-7.34,4.24-13.3,14.55-13.3,23,0,4.18,1.46,7.13,3.8,8.54h0l.07,0,.05,0,7.9,4.59,4.58-7.76A31.09,31.09,0,0,0,335.07,165.2Z" style="opacity:0.15"></path><ellipse cx="330.31" cy="173.24" rx="18.8" ry="10.85" transform="translate(15.12 372.68) rotate(-60)" style="fill:#FFE20E"></ellipse></g><g id="freepik--character--inject-1"><path d="M377.77,194.31l-.89,2.81L369,179.79v22.73s5.66,11.35,8.44,11.35c.63,0,3.27,1.41,9.18-14.69Z" style="fill:#ffa8a7"></path><path d="M388.24,198.7a18.78,18.78,0,0,1-11.36-3.27,149.05,149.05,0,0,1,5.4-18c3.59-9.21,7.65-10.62,14-10.51Z" style="fill:#FFE20E"></path><path d="M388.62,198.65c-6.25.5-11.74-3.22-11.74-3.22a149.05,149.05,0,0,1,5.4-18c3.59-9.21,7.65-10.62,14-10.51Z" style="opacity:0.1"></path><rect x="416.08" y="350.26" width="8.77" height="15.02" style="fill:#ffa8a7"></rect><polygon points="394.44 349.46 385.67 349.76 385.23 333.87 394.44 333.57 394.44 349.46" style="fill:#ffa8a7"></polygon><path d="M424.83,233.51c0,8.38-1.48,57.12-1.48,57.12.21,2.41,2.53,6.7,2.71,15.38.26,12.6-.83,51.77-.83,51.77a11.58,11.58,0,0,1-9.77.19s-7.74-51.46-9.31-63.93c-1.37-10.88-3.7-40.44-3.7-40.44l-4.76,35.52a49.86,49.86,0,0,1,1.09,13.95c-.41,5.76-3.79,41.47-3.79,41.47a12,12,0,0,1-10.13.77s-4.44-50.9-4.54-56.19c-.11-6,2.92-67.6,2.92-67.6Z" style="fill:#37474f"></path><path d="M421.22,172.83s3.36,3.06,3.36,11v17.19l.25,32.46c-12.59,6.64-28.6,7.09-42-2.73,0,0,.75-41.78.75-48.62,0-.28,0-.57,0-.86.45-9.8,10.06-16.55,19.55-14.11l8,2.05,8,2.63Z" style="fill:#FFE20E"></path><circle cx="396.54" cy="139.89" r="12.06" style="fill:#263238"></circle><path d="M417.38,148.47s-1.95,9.18-2.73,10.69a4.19,4.19,0,0,1-2.41,1.93l.14-6.46Z" style="fill:#263238"></path><path d="M414.93,135.31a4.53,4.53,0,0,1,3.75,1.32c1.6,1.65.71,6.79-1.3,11.84l-3.68.42Z" style="fill:#263238"></path><path d="M412.6,148.89c.74.44,1.79-1,2.7-1.93s3.88-2.25,5.36.87-1.3,7.39-3.64,8.13c-4,1.26-4.64-1.33-4.64-1.33l-.3,15h0c-5,6.43-18.92,5.89-13.12-.83v-4.42a25.85,25.85,0,0,1-5.44.28c-3-.46-4.83-2.8-5.73-6-1.44-5.16-2-9.32-.77-19.46,1.35-11.11,14.27-11.22,21.25-6.83S412.6,148.89,412.6,148.89Z" style="fill:#ffa8a7"></path><path d="M412.6,150.13c.37,0,1.78-2.33,2.7-3.17,1.27-1.16-.37-11.65-.37-11.65a5,5,0,0,0-1.23-5.3c-1.74-1.92-4.66-2.13-9.63-2.92-2.61-.41-6.57-1.14-9.18-1.62-3.11-.58-5.69-1.19-7.89.72a5.5,5.5,0,0,0-1.52,6.18,4.69,4.69,0,0,0,.88,1.32,5.11,5.11,0,0,0,2.24,1.54s1.36,1.21,6.08,1.78a70.32,70.32,0,0,0,13.09-.24c1.36-.19,1.66,1.14,2.4,4.76C410.81,144.71,411.35,150.11,412.6,150.13Z" style="fill:#263238"></path><path d="M414.92,136.13l4.47-2.4a2.46,2.46,0,0,0-3.38-1.11A2.66,2.66,0,0,0,414.92,136.13Z" style="fill:#263238"></path><path d="M399,164.37s6.61-1.34,8.93-2.57a7.65,7.65,0,0,0,3.2-3.16,10.54,10.54,0,0,1-1.82,3.73c-1.69,2.16-10.31,3.76-10.31,3.76Z" style="fill:#f28f8f"></path><path d="M400.56,147.24a1.33,1.33,0,1,0,1.32-1.38A1.34,1.34,0,0,0,400.56,147.24Z" style="fill:#263238"></path><path d="M402,142.23l2.84,1.57a1.7,1.7,0,0,0-.66-2.26A1.58,1.58,0,0,0,402,142.23Z" style="fill:#263238"></path><path d="M399.57,156.4l-3,1.14a1.59,1.59,0,0,0,2,1A1.7,1.7,0,0,0,399.57,156.4Z" style="fill:#f28f8f"></path><path d="M388.73,143.33l2.59-2a1.57,1.57,0,0,0-2.25-.34A1.7,1.7,0,0,0,388.73,143.33Z" style="fill:#263238"></path><path d="M389.53,146.86a1.34,1.34,0,0,0,1.32,1.37,1.38,1.38,0,1,0-1.32-1.37Z" style="fill:#263238"></path><polygon points="396.28 145.6 395.85 153.58 391.68 152.16 396.28 145.6" style="fill:#f28f8f"></polygon><path d="M416.08,361V359.7c-.84.37-2.79,7.81-6.27,11-2.77,2.53-6.54,5.44-7.5,8.26s5.26,4.54,7.84,4.08c3-.53,8.21-2.64,9.52-4.6s1.92-4.86,3-6.3,3.51-3,4.09-4.7c.31-.92-.06-2.92-.5-4.61s-.85-3.26-1.38-3.11v1a7,7,0,0,1-4.39,1.48C419.19,362.19,416.07,361.93,416.08,361Z" style="fill:#263238"></path><path d="M385.57,347.06c-.45,0-.82.66-1.83,1.75a19.16,19.16,0,0,1-5.16,3.71c-3.29,1.64-9.67,4.17-12.57,5.48-1.8.81-1.72,3,.15,4.23s6.37,2.14,11.79.93c2.95-.66,6.78-3.38,9.21-3.24s7,.12,8.77-1.12,1.08-3.88.57-6.14c-.55-2.48-1.24-6.34-2.06-6.17v.85c-1.06,1.6-6.5,2.25-8.82,1.07Z" style="fill:#263238"></path><path d="M402.45,253.6a32.48,32.48,0,0,1-12.22-7s2.36,4.41,9.37,8.52l-1.5,31Z" style="fill:#263238"></path><path d="M409.16,226.5c4-2.07,5.39-2.8,7.2-8,13-37.44,8.71-42.34,2.23-44.67l-4.89,9.93L405,214.82c-5.77,4.92-17.76,10.65-24.34,12.09a11.12,11.12,0,0,1-4.57-.48c-2.85-1-4.3-.82-7.16-1.58v3.33a51.24,51.24,0,0,1-7.7-.88c-5.92-1.1-8,.87-3.18,6.81,2.75,3.37,8.14,4.67,16,3.83a64.22,64.22,0,0,0,11.9-3.1C396.09,231.42,403.89,229.22,409.16,226.5Z" style="fill:#ffa8a7"></path><path d="M419.07,171.87c4.49,1.22,7.54,5.13,7,12.3-.46,6.44-3.08,15.62-4.49,22.15,0,0-8.32.11-13.82-4.24,1.37-5.78,2.7-11.82,3.72-17C413.45,178.1,416.43,171.66,419.07,171.87Z" style="fill:#FFE20E"></path><g style="opacity:0.05"><path d="M419.07,171.87c4.49,1.22,7.54,5.13,7,12.3-.46,6.44-3.08,15.62-4.49,22.15,0,0-8.32.11-13.82-4.24,1.37-5.78,2.7-11.82,3.72-17C413.45,178.1,416.43,171.66,419.07,171.87Z"></path></g></g></g><g id="freepik--Cloud--inject-1"><g id="freepik--Clouds--inject-1"><path d="M159.68,75.82l-12,6.91a14.44,14.44,0,0,0,.1-1.59V77.68c0-6.16-4.33-8.66-9.67-5.58a18.79,18.79,0,0,0-5.76,5.54c-.87-7.75-7-10.64-14.34-6.37-8,4.61-14.46,15.82-14.46,25v5.19a13.68,13.68,0,0,0,1.22,6l-9.93,5.73a11.86,11.86,0,0,0-5.36,9.29c0,3.42,2.4,4.81,5.36,3.1l64.79-37.41a11.84,11.84,0,0,0,5.37-9.29C165.05,75.5,162.65,74.11,159.68,75.82Z" style="fill:#f5f5f5"></path></g></g></svg>